# xmcd
#
# Track frame offsets:
#	150
#	12222
#	21852
#	38399
#	55831
#	67546
#	78907
#	90399
#	106160
#	121074
#	133149
#	146109
#	156216
#	167900
#	177771
#
# Disc length: 2564
#
# Revision: 1
# Processed by: cddbd v1.5.1PL0 Copyright (c) Steve Scherf et al.
# Submitted via: dBpowerAMP V4.0
# Normalized: r0:TDELIM( - )
#
DISCID=ae0a020f
DTITLE=Various Artist - Time-Life Classic Country Disc One
DYEAR=1900
DGENRE=
TTITLE0=Tammy Wynette - White Christmas
TTITLE1=Elvis Presley - Blue Christmas
TTITLE2=Alabama - Christmas in Dixie
TTITLE3=Dolly Parton - Hard Candy Christmas
TTITLE4=Vince Gill - Santa Clause is Coming to Town
TTITLE5=Willie Nelson - Pretty Paper
TTITLE6=Johnny Cash - Little Drummer Boy
TTITLE7=The Judds - What Child is This
TTITLE8=Randy Travis - The Christmas Song
TTITLE9=John Anderson - I'll Be Home for Christmas
TTITLE10=Emmylou Harris - Christmas Time's A-Comin'
TTITLE11=Buck Ownes - Santa Looked a Lot Like Daddy
TTITLE12=Dwight Yoakam - Here Comes Santa Clause
TTITLE13=Bobby Helms - Jingle Bell Rock
TTITLE14=Jim Reeves - Silent Night
EXTD=
EXTT0=
EXTT1=
EXTT2=
EXTT3=
EXTT4=
EXTT5=
EXTT6=
EXTT7=
EXTT8=
EXTT9=
EXTT10=
EXTT11=
EXTT12=
EXTT13=
EXTT14=
PLAYORDER=
